<svg width="69" height="69" viewBox="0 0 69 69" fill="none" xmlns="http://www.w3.org/2000/svg">
<path d="M31.625 60.375V54.625H25.875V48.875H31.625V42.8375C27.8396 42.1667 24.7375 40.3573 22.3186 37.4095C19.8979 34.4636 18.6875 31.05 18.6875 27.1687C18.6875 22.8083 20.2333 19.1072 23.3249 16.0655C26.4145 13.0218 30.1396 11.5 34.5 11.5C38.8604 11.5 42.5855 13.0218 45.6751 16.0655C48.7667 19.1072 50.3125 22.8083 50.3125 27.1687C50.3125 31.05 49.1031 34.4636 46.6843 37.4095C44.2635 40.3573 41.1604 42.1667 37.375 42.8375V48.875H43.125V54.625H37.375V60.375H31.625ZM34.5 37.375C37.2792 37.375 39.651 36.3927 41.6156 34.4281C43.5802 32.4635 44.5625 30.0917 44.5625 27.3125C44.5625 24.5333 43.5802 22.1615 41.6156 20.1969C39.651 18.2323 37.2792 17.25 34.5 17.25C31.7208 17.25 29.349 18.2323 27.3844 20.1969C25.4198 22.1615 24.4375 24.5333 24.4375 27.3125C24.4375 30.0917 25.4198 32.4635 27.3844 34.4281C29.349 36.3927 31.7208 37.375 34.5 37.375Z" fill="#F5ECEC"/>
</svg>
