<svg width="69" height="69" viewBox="0 0 69 69" fill="none" xmlns="http://www.w3.org/2000/svg">
<path d="M57.5 11.5V28.75H51.75V21.3469L40.3219 32.7031C41.2323 34.0448 41.9271 35.4698 42.4062 36.9782C42.8854 38.4886 43.125 40.0583 43.125 41.6875C43.125 46.0958 41.5917 49.8333 38.525 52.9C35.4583 55.9667 31.7208 57.5 27.3125 57.5C22.9042 57.5 19.1667 55.9667 16.1 52.9C13.0333 49.8333 11.5 46.0958 11.5 41.6875C11.5 37.2792 13.0333 33.5417 16.1 30.475C19.1667 27.4083 22.9042 25.875 27.3125 25.875C28.8937 25.875 30.451 26.1031 31.9844 26.5592C33.5177 27.0135 34.9312 27.7198 36.225 28.6781L47.6531 17.25H40.25V11.5H57.5ZM27.3125 31.625C24.5333 31.625 22.1615 32.6073 20.1969 34.5719C18.2323 36.5365 17.25 38.9083 17.25 41.6875C17.25 44.4667 18.2323 46.8385 20.1969 48.8031C22.1615 50.7677 24.5333 51.75 27.3125 51.75C30.0917 51.75 32.4635 50.7677 34.4281 48.8031C36.3927 46.8385 37.375 44.4667 37.375 41.6875C37.375 38.9083 36.3927 36.5365 34.4281 34.5719C32.4635 32.6073 30.0917 31.625 27.3125 31.625Z" fill="#F5ECEC"/>
</svg>
