<svg width="134" height="134" viewBox="0 0 134 134" fill="none" xmlns="http://www.w3.org/2000/svg">
<path d="M114.012 25.5717C111.211 22.7609 107.882 20.5307 104.217 19.009C100.553 17.4872 96.6236 16.7039 92.6554 16.7039C88.6872 16.7039 84.7581 17.4872 81.0933 19.009C77.4285 20.5307 74.1002 22.7609 71.2992 25.5717L67 29.9267L62.7008 25.5717C59.8998 22.7609 56.5714 20.5307 52.9067 19.009C49.2419 17.4872 45.3127 16.7039 41.3446 16.7039C37.3764 16.7039 33.4473 17.4872 29.7825 19.009C26.1177 20.5307 22.7894 22.7609 19.9883 25.5717C8.15166 37.4084 7.42583 57.3967 22.3333 72.5834L67 117.25L111.667 72.5834C126.574 57.3967 125.848 37.4084 114.012 25.5717Z" stroke="#F5ECEC" stroke-width="6" stroke-linecap="round" stroke-linejoin="round"/>
<path d="M19.5416 67H53.0416L55.8333 61.4167L67 86.5417L78.1666 47.4584L86.5416 67H114.458" stroke="#F5ECEC" stroke-width="6" stroke-linecap="round" stroke-linejoin="round"/>
</svg>
